<svg width="23" height="13" viewBox="0 0 23 13" fill="none" xmlns="http://www.w3.org/2000/svg">
<g clip-path="url(#clip0_202_336)">
<path d="M22.5459 6.67795C22.5459 6.58485 22.4985 6.50868 22.404 6.44097L14.4126 0.68576C14.2354 0.54188 14.1052 0.508026 13.9752 0.508026C13.7152 0.508026 13.5143 0.651906 13.5143 0.82964C13.5143 0.922737 13.5497 1.00738 13.6443 1.06662L18.3611 4.45204L21.1864 6.40712L18.5975 6.35633H1.04248C0.794228 6.35633 0.593262 6.49175 0.593262 6.67795C0.593262 6.86414 0.794228 6.99956 1.04248 6.99956H18.5975L21.1864 6.95724L18.3611 8.90383L13.6443 12.2893C13.5615 12.3485 13.5143 12.4416 13.5143 12.5347C13.5143 12.704 13.7152 12.8479 13.9752 12.8479C14.1052 12.8479 14.2116 12.8141 14.3063 12.7463L22.404 6.91493C22.4985 6.84722 22.5459 6.77105 22.5459 6.67795Z" fill="white"/>
</g>
<defs>
<clipPath id="clip0_202_336">
<rect width="23" height="13" fill="white"/>
</clipPath>
</defs>
</svg>
